<svg id="Layer_1" viewBox="0 0 24 24" xmlns="http://www.w3.org/2000/svg" data-name="Layer 1"><path d="m17.5 11c-3.584 0-6.5 2.916-6.5 6.5s2.916 6.5 6.5 6.5 6.5-2.916 6.5-6.5-2.916-6.5-6.5-6.5zm0 12c-3.032 0-5.5-2.468-5.5-5.5s2.468-5.5 5.5-5.5 5.5 2.468 5.5 5.5-2.468 5.5-5.5 5.5zm3.5-5c0 1.379-1.121 2.5-2.5 2.5h-1c-.276 0-.5-.224-.5-.5s.224-.5.5-.5h1c.827 0 1.5-.673 1.5-1.5s-.673-1.5-1.5-1.5h-3.11l.964.964c.195.195.195.512 0 .707s-.512.195-.707 0l-1.275-1.275c-.482-.494-.482-1.297 0-1.791l1.275-1.275c.195-.195.512-.195.707 0s.195.512 0 .707l-.964.964h3.11c1.379 0 2.5 1.121 2.5 2.5zm-3.198-12.025c.116.291.198.597.198.92v1.605c0 .276.224.5.5.5s.5-.224.5-.5v-1.605c0-1.26-.682-2.428-1.778-3.048l-6.008-3.394c-1.064-.602-2.385-.601-3.447.001l-5.992 3.393c-1.095.621-1.775 1.788-1.775 3.046v7.344c0 1.253.676 2.417 1.763 3.038l6.022 3.443c.176.101.358.185.545.252.254.092.546-.039.64-.302.093-.26-.042-.546-.301-.64-.133-.048-.263-.108-.388-.179l-6.022-3.443c-.777-.443-1.259-1.275-1.259-2.17v-7.343c0-.323.082-.63.199-.921l7.801 4.458v3.07c0 .276.224.5.5.5s.5-.224.5-.5v-3.065s7.802-4.46 7.802-4.46zm-15.533-1.258 5.991-3.392c.758-.43 1.701-.432 2.461 0l6.008 3.395c.2.113.379.252.538.411l-7.764 4.438-7.769-4.443c.157-.158.336-.296.535-.409z"/></svg>