<?xml version="1.0" encoding="UTF-8"?>
<svg xmlns="http://www.w3.org/2000/svg" id="Layer_1" data-name="Layer 1" viewBox="0 0 24 24">
  <path d="m22.946,9.222l-1.946-1.896V2.5c0-1.379-1.121-2.5-2.5-2.5H5.5c-1.379,0-2.5,1.121-2.5,2.5v4.829l-1.946,1.894c-.67.653-1.054,1.565-1.054,2.502v12.275h24v-12.275c0-.936-.384-1.848-1.054-2.503Zm-.578.86l-1.368,1.368v-2.727s1.327,1.312,1.368,1.359ZM5.5,1h13c.827,0,1.5.673,1.5,1.5v9.949l-5.525,5.525c-1.322,1.322-3.627,1.322-4.949,0l-5.525-5.525V2.5c0-.827.673-1.5,1.5-1.5Zm-2.5,7.724v2.725l-1.368-1.368c.041-.047,1.368-1.357,1.368-1.357Zm20,14.276H1v-11.275c0-.252.051-.498.125-.736l7.693,7.693c.85.851,1.979,1.318,3.182,1.318s2.332-.468,3.182-1.318l7.693-7.693c.074.238.125.484.125.736v11.275Zm-13.061-12.439l-3.288-3.202.697-.717,3.293,3.207c.2.2.518.2.712.005l5.296-5.21.701.713-5.293,5.207c-.29.291-.674.437-1.057.437s-.769-.146-1.062-.439Z"/>
</svg>
