<svg id="Layer_1" viewBox="0 0 24 24" xmlns="http://www.w3.org/2000/svg" data-name="Layer 1"><path d="m16.71 13.048s0 0 0 0c.488.81.35 1.855-.245 2.589l-1.788 2.304c-.339.436-.26 1.064.177 1.403.436.339 1.064.26 1.403-.177l1.698-2.187h2.053c1.07 0 2.085-.242 2.994-.673-.076 2.026-.918 3.952-2.363 5.384l-1.792 1.775c-.37.343-.855.533-1.36.533h-7.479c-.552 0-1-.448-1-1v-3.82c0-1.655.684-3.237 1.89-4.371l2.402-2.258c1.007-.934 2.66-.748 3.412.498zm4.29-11.048v13c1.654 0 3-1.346 3-3v-7c0-1.654-1.346-3-3-3zm-4 0c-1.654 0-3 1.346-3 3v5.065c.455-.089.921-.127 1.393-.062 1.262.178 2.38.903 3.03 2.012.422.72.594 1.44.577 2.171v-12.186zm-9.994 17.18c0-2.198.919-4.322 2.521-5.828 0 0 2.451-2.292 2.474-2.312v-6.04c0-1.332.532-2.537 1.384-3.434l-4.571-1.515c-.203-.067-.426-.067-.629 0l-5.215 1.729c-1.777.59-2.97 2.242-2.97 4.114v4.309c0 4.973 4.71 8.201 7.006 9.478z"/></svg>