<?xml version="1.0" encoding="UTF-8"?>
<svg xmlns="http://www.w3.org/2000/svg" id="Layer_1" data-name="Layer 1" viewBox="0 0 24 24">
  <path d="m17.5,7c-.276,0-.5-.224-.5-.5s.224-.5.5-.5h3.692c-2.023-3.091-5.474-5-9.192-5C5.935,1,1,5.935,1,12s4.935,11,11,11c1.5,0,2.289-.22,2.901-.387.276-.07.542.086.614.351.072.267-.085.542-.351.614-.668.182-1.665.422-3.165.422C5.383,24,0,18.617,0,12S5.383,0,12,0c4.04,0,7.789,2.066,10,5.414V1.5c0-.276.224-.5.5-.5s.5.224.5.5v4c0,.827-.673,1.5-1.5,1.5h-4Zm6,4.5c-.276,0-.5.224-.5.5,0,.64-.055,1.28-.163,1.903-.048.272.135.531.406.578.029.006.058.008.087.008.238,0,.449-.171.491-.414.119-.681.179-1.378.179-2.075,0-.276-.224-.5-.5-.5Zm-.855,4.891c-.25-.118-.548-.009-.664.242-.269.577-.589,1.134-.953,1.655-.158.227-.103.538.124.696.087.061.187.09.286.09.157,0,.313-.074.41-.214.397-.569.747-1.177,1.039-1.806.116-.251.008-.548-.242-.664Zm-3.547,4.013c-.486.412-1.011.782-1.56,1.103-.238.139-.319.444-.18.684.093.159.26.248.432.248.086,0,.173-.021.252-.068.599-.349,1.171-.753,1.702-1.202.211-.179.237-.494.059-.705-.178-.209-.494-.234-.705-.059Zm-2.357-6.342l-4.24-2.32v-6.241c0-.276-.224-.5-.5-.5s-.5.224-.5.5v6.538c0,.183.1.351.26.438l4.5,2.462c.076.042.158.062.24.062.177,0,.348-.094.438-.26.133-.242.044-.546-.198-.679Z"/>
</svg>
