<svg id="Layer_1" viewBox="0 0 24 24" xmlns="http://www.w3.org/2000/svg" data-name="Layer 1"><path d="m23.647 18.381-3.49-3.49c.075-.489.059-.977-.05-1.458 1.017-.81 1.948-2.006 1.881-3.425.003-.666-.162-1.319-.478-1.888-.305-.677-.95-1.074-1.402-1.554.148-.652.126-1.319-.064-1.981-.364-1.268-1.378-2.28-2.646-2.642-.664-.19-1.331-.211-1.98-.063-.485-.446-.879-1.096-1.56-1.401-1.153-.638-2.586-.638-3.74 0-.679.305-1.072.951-1.559 1.4-.641-.145-1.326-.123-1.979.063-1.269.362-2.283 1.375-2.647 2.642-.191.664-.212 1.331-.064 1.982-1.015.811-1.948 2.006-1.881 3.426-.066 1.437.857 2.622 1.881 3.44-.111.488-.127.985-.048 1.482l-3.468 3.467c-.193.194-.316.451-.346.725-.073.667.409 1.269 1.076 1.342l2.221.246.245 2.212c.047.469.364.87.806 1.023.444.159.941.044 1.263-.286l4.279-4.279c.592.449 1.363.628 2.088.637.731-.009 1.51-.19 2.104-.647l4.29 4.29c.323.33.82.445 1.263.286.442-.154.76-.554.806-1.023l.245-2.212 2.221-.246c.667-.074 1.149-.675 1.076-1.342-.03-.273-.153-.531-.346-.725zm-11.242-1.484c-.25.138-.584.138-.833 0-.154-.085-.275-.194-.358-.323-.592-.917-1.602-1.454-2.648-1.454-.397-.028-.761.175-1.163.052-.273-.078-.509-.313-.587-.586-.049-.171-.056-.335-.021-.488.288-1.267-.268-2.6-1.383-3.318-.251-.167-.432-.455-.424-.788-.008-.316.179-.614.424-.773 1.115-.718 1.67-2.051 1.382-3.319-.035-.152-.027-.316.022-.488.078-.272.314-.507.588-.586.173-.049.336-.057.491-.022 1.267.286 2.6-.267 3.318-1.378.084-.13.205-.239.357-.324.249-.139.583-.139.833 0 .154.085.275.194.358.323.718 1.112 2.052 1.667 3.318 1.379.154-.035.319-.027.493.022.273.078.509.313.587.586.049.171.056.335.022.487-.289 1.267.267 2.601 1.382 3.319.251.167.432.455.424.788.008.316-.179.614-.424.773-1.115.718-1.671 2.052-1.382 3.317.035.154.027.318-.022.49-.078.272-.314.508-.587.585-.172.049-.338.057-.492.022-1.267-.285-2.6.267-3.318 1.378-.084.13-.205.239-.357.324zm1.087-3.897h-3.991c-.828 0-1.5-.672-1.5-1.5v-2c0-.828.672-1.5 1.5-1.5h.376l1.624-2.046c.158-.318.396-.451.705-.454.364 0 .663.238.763.606.012.043.027.141-.004.32l-.506 1.575h2.242c.731 0 1.319.601 1.303 1.332-.002.111-.019.222-.05.329l-.539 1.888c-.245.859-1.03 1.451-1.923 1.451z"/></svg>